<?xml version="1.0" encoding="utf-8"?>
<svg width="46px" height="44px" viewBox="0 0 46 44" version="1.1" xmlns:xlink="http://www.w3.org/1999/xlink" xmlns="http://www.w3.org/2000/svg">
  <desc>Created with Lunacy</desc>
  <g id="cut" transform="translate(0.5 0.5)">
    <path d="M4 0.5L0 0.5" transform="translate(28 13.5)" id="Path" fill="none" stroke="#1E1E1E" stroke-width="1" stroke-linecap="square" />
    <path d="M4 0.5L0 0.5" transform="translate(28 41.5)" id="Path" fill="none" stroke="#1E1E1E" stroke-width="1" stroke-linecap="square" />
    <path d="M4 0.5L0 0.5" transform="translate(16 41.5)" id="Path" fill="none" stroke="#1E1E1E" stroke-width="1" stroke-linecap="square" />
    <path d="M0.5 4L0.5 0" transform="translate(43.5 26)" id="Path" fill="none" stroke="#1E1E1E" stroke-width="1" stroke-linecap="square" />
    <path d="M4 4L4 0L0 0" transform="translate(40 14)" id="Path" fill="none" stroke="#1E1E1E" stroke-width="1" stroke-linecap="square" />
    <path d="M4 0L4 4L0 4" transform="translate(40 38)" id="Path" fill="none" stroke="#1E1E1E" stroke-width="1" stroke-linecap="square" />
    <path d="M0 0L0 4L4 4" transform="translate(4 38)" id="Path" fill="none" stroke="#1E1E1E" stroke-width="1" stroke-linecap="square" />
    <path d="M5 10C7.76142 10 10 7.76142 10 5C10 2.23858 7.76142 0 5 0C2.23858 0 0 2.23858 0 5C0 7.76142 2.23858 10 5 10Z" transform="translate(0 18)" id="Oval" fill="none" stroke="#1E1E1E" stroke-width="1" stroke-linecap="square" />
    <path d="M5 10C7.76142 10 10 7.76142 10 5C10 2.23858 7.76142 0 5 0C2.23858 0 0 2.23858 0 5C0 7.76142 2.23858 10 5 10Z" id="Oval" fill="none" stroke="#1E1E1E" stroke-width="1" stroke-linecap="square" />
    <path d="M0 0L21.109 17.861" transform="translate(8.890991 8.139038)" id="Path" fill="none" stroke="#1E1E1E" stroke-width="1" stroke-linecap="square" />
    <path d="M0 17.861L21.109 0" transform="translate(8.890991 2)" id="Path" fill="none" stroke="#1E1E1E" stroke-width="1" stroke-linecap="square" />
  </g>
</svg>