<?xml version="1.0" encoding="utf-8"?>
<svg width="12px" height="22px" viewBox="0 0 12 22" version="1.1" xmlns:xlink="http://www.w3.org/1999/xlink" xmlns="http://www.w3.org/2000/svg">
  <desc>Created with Lunacy</desc>
  <defs>
    <path d="M3.45495 21.6216L3.45495 11.951L0 11.951L0 8.10811L3.45495 8.10811L3.45495 5.08024C3.45495 1.79054 5.5991 0 8.72973 0C10.2297 0 11.518 0.105574 11.8919 0.152027L11.8919 3.58953L9.72072 3.58953C8.01802 3.58953 7.68919 4.34966 7.68919 5.4603L7.68919 8.10811L11.5315 8.10811L11.0045 11.951L7.68919 11.951L7.68919 21.6216" id="path_1" />
    <clipPath id="mask_1">
      <use xlink:href="#path_1" />
    </clipPath>
  </defs>
  <path d="M3.45495 21.6216L3.45495 11.951L0 11.951L0 8.10811L3.45495 8.10811L3.45495 5.08024C3.45495 1.79054 5.5991 0 8.72973 0C10.2297 0 11.518 0.105574 11.8919 0.152027L11.8919 3.58953L9.72072 3.58953C8.01802 3.58953 7.68919 4.34966 7.68919 5.4603L7.68919 8.10811L11.5315 8.10811L11.0045 11.951L7.68919 11.951L7.68919 21.6216" id="facebook-f" fill="#FFFFFF" stroke="none" />
</svg>