<?xml version="1.0" encoding="utf-8"?>
<svg width="27px" height="27px" viewBox="0 0 27 27" version="1.1" xmlns:xlink="http://www.w3.org/1999/xlink" xmlns="http://www.w3.org/2000/svg">
  <desc>Created with Lunacy</desc>
  <g id="logo-instagram">
    <path d="M7.9335 0.081C9.3735 0.01575 9.83362 0 13.5 0C17.1664 0 17.6265 0.01575 19.0665 0.081C21.2603 0.181125 23.1874 0.718875 24.7342 2.26575C26.2811 3.81263 26.8189 5.73975 26.919 7.9335C26.9842 9.3735 27 9.83362 27 13.5C27 17.1664 26.9842 17.6265 26.919 19.0665C26.8189 21.2603 26.2811 23.1874 24.7342 24.7342C23.1874 26.2811 21.2603 26.8189 19.0665 26.919C17.6265 26.9842 17.1664 27 13.5 27C9.83362 27 9.3735 26.9842 7.9335 26.919C5.73975 26.8189 3.81263 26.2811 2.26575 24.7342C0.718875 23.1874 0.181125 21.2603 0.081 19.0665C0.01575 17.6265 0 17.1664 0 13.5C0 9.83362 0.01575 9.3735 0.081 7.9335C0.181125 5.73975 0.718875 3.81263 2.26575 2.26575C3.81263 0.718875 5.73975 0.181125 7.9335 0.081ZM18.9551 2.511C17.532 2.44575 17.1045 2.43225 13.5 2.43225C9.8955 2.43225 9.468 2.44575 8.04487 2.511C6.50812 2.58075 5.08275 2.889 3.98587 3.98587C2.889 5.08275 2.58075 6.50812 2.511 8.04487C2.44575 9.468 2.43225 9.8955 2.43225 13.5C2.43225 17.1045 2.44575 17.532 2.511 18.9551C2.58075 20.4919 2.889 21.9172 3.98587 23.0141C5.08275 24.111 6.50812 24.4192 8.04487 24.489C9.468 24.5542 9.8955 24.5677 13.5 24.5677C17.1045 24.5677 17.532 24.5542 18.9551 24.489C20.4919 24.4192 21.9172 24.111 23.0141 23.0141C24.111 21.9172 24.4192 20.4919 24.489 18.9551C24.5542 17.532 24.5677 17.1045 24.5677 13.5C24.5677 9.8955 24.5542 9.468 24.489 8.04487C24.4192 6.50812 24.111 5.08275 23.0141 3.98587C21.9172 2.889 20.4919 2.58075 18.9551 2.511Z" id="Shape" fill="#1E1E1E" fill-rule="evenodd" stroke="none" />
    <path d="M0 6.75C0 3.02227 3.02227 0 6.75 0C10.4777 0 13.5 3.02227 13.5 6.75C13.5 10.4777 10.4777 13.5 6.75 13.5C3.02227 13.5 0 10.4777 0 6.75ZM2.36831 6.75C2.36831 9.16979 4.33021 11.1317 6.75 11.1317C9.16979 11.1317 11.1317 9.16979 11.1317 6.75C11.1317 4.33021 9.16979 2.36831 6.75 2.36831C4.33021 2.36831 2.36831 4.33021 2.36831 6.75Z" transform="translate(6.75 6.75)" id="Shape" fill="#1E1E1E" fill-rule="evenodd" stroke="none" />
    <path d="M1.35 2.7C2.09558 2.7 2.7 2.09558 2.7 1.35C2.7 0.604416 2.09558 0 1.35 0C0.604416 0 0 0.604416 0 1.35C0 2.09558 0.604416 2.7 1.35 2.7Z" transform="translate(18.90002 5.399902)" id="Oval" fill="#1E1E1E" stroke="none" />
  </g>
</svg>