<?xml version="1.0" encoding="utf-8"?>
<svg width="30px" height="31px" viewBox="0 0 30 31" version="1.1" xmlns:xlink="http://www.w3.org/1999/xlink" xmlns="http://www.w3.org/2000/svg">
  <desc>Created with Lunacy</desc>
  <path d="M18.6936 17.2936L16.4116 20.1466C12.8772 18.0693 9.93188 15.1239 7.85457 11.5896L10.7076 9.30761C11.3949 8.75705 11.6248 7.81249 11.2676 7.00761L8.66757 1.15261C8.28252 0.285134 7.32614 -0.176129 6.40757 0.0626076L1.45757 1.34661C0.501389 1.59625 -0.116869 2.5217 0.0185662 3.50061C1.80321 16.2094 11.7918 26.198 24.5006 27.9826C25.4791 28.1175 26.404 27.4994 26.6536 26.5436L27.9376 21.5936C28.1753 20.6759 27.7147 19.7209 26.8486 19.3356L20.9936 16.7356C20.1891 16.3779 19.2446 16.607 18.6936 17.2936Z" transform="translate(1 1)" id="Path" fill="none" stroke="#D98719" stroke-width="2" stroke-linecap="square" />
</svg>