<?xml version="1.0" encoding="utf-8"?>
<svg width="22px" height="18px" viewBox="0 0 22 18" version="1.1" xmlns:xlink="http://www.w3.org/1999/xlink" xmlns="http://www.w3.org/2000/svg">
  <desc>Created with Lunacy</desc>
  <defs>
    <path d="M19.3991 4.37644C19.4128 4.5685 19.4128 4.7606 19.4128 4.95266C19.4128 10.8108 14.9541 17.5607 6.80477 17.5607C4.29413 17.5607 1.96187 16.8335 0 15.5714C0.356715 15.6125 0.699662 15.6263 1.0701 15.6263C3.14168 15.6263 5.04869 14.9266 6.57154 13.733C4.62339 13.6918 2.99079 12.416 2.42829 10.6599C2.7027 10.701 2.97707 10.7285 3.2652 10.7285C3.66305 10.7285 4.06094 10.6736 4.43133 10.5776C2.40089 10.166 0.877998 8.38247 0.877998 6.22855L0.877998 6.17369C1.46791 6.50296 2.15393 6.70874 2.881 6.73615C1.68742 5.94041 0.905448 4.58222 0.905448 3.04565C0.905448 2.22251 1.12492 1.46795 1.50908 0.809417C3.69046 3.4984 6.96938 5.25443 10.6461 5.44654C10.5775 5.11727 10.5364 4.77432 10.5364 4.43133C10.5364 1.98927 12.512 3.45669e-14 14.9677 3.45669e-14C16.2436 3.45669e-14 17.396 0.535051 18.2054 1.39937C19.2069 1.20731 20.1673 0.836867 21.0179 0.329265C20.6886 1.35823 19.9889 2.22255 19.0698 2.77128C19.9615 2.6753 20.8258 2.42829 21.6215 2.08535C21.018 2.96334 20.2634 3.74531 19.3991 4.37644Z" id="path_1" />
    <clipPath id="mask_1">
      <use xlink:href="#path_1" />
    </clipPath>
  </defs>
  <path d="M19.3991 4.37644C19.4128 4.5685 19.4128 4.7606 19.4128 4.95266C19.4128 10.8108 14.9541 17.5607 6.80477 17.5607C4.29413 17.5607 1.96187 16.8335 0 15.5714C0.356715 15.6125 0.699662 15.6263 1.0701 15.6263C3.14168 15.6263 5.04869 14.9266 6.57154 13.733C4.62339 13.6918 2.99079 12.416 2.42829 10.6599C2.7027 10.701 2.97707 10.7285 3.2652 10.7285C3.66305 10.7285 4.06094 10.6736 4.43133 10.5776C2.40089 10.166 0.877998 8.38247 0.877998 6.22855L0.877998 6.17369C1.46791 6.50296 2.15393 6.70874 2.881 6.73615C1.68742 5.94041 0.905448 4.58222 0.905448 3.04565C0.905448 2.22251 1.12492 1.46795 1.50908 0.809417C3.69046 3.4984 6.96938 5.25443 10.6461 5.44654C10.5775 5.11727 10.5364 4.77432 10.5364 4.43133C10.5364 1.98927 12.512 3.45669e-14 14.9677 3.45669e-14C16.2436 3.45669e-14 17.396 0.535051 18.2054 1.39937C19.2069 1.20731 20.1673 0.836867 21.0179 0.329265C20.6886 1.35823 19.9889 2.22255 19.0698 2.77128C19.9615 2.6753 20.8258 2.42829 21.6215 2.08535C21.018 2.96334 20.2634 3.74531 19.3991 4.37644Z" id="twitter" fill="#FFFFFF" stroke="none" />
</svg>