<?xml version="1.0" encoding="utf-8"?>
<svg width="21px" height="21px" viewBox="0 0 21 21" version="1.1" xmlns:xlink="http://www.w3.org/1999/xlink" xmlns="http://www.w3.org/2000/svg">
  <desc>Created with Lunacy</desc>
  <defs>
    <path d="M0 10.473C0 4.69814 4.69814 0 10.473 0C16.2478 0 20.9459 4.69814 20.9459 10.473C20.9459 16.2478 16.2478 20.9459 10.473 20.9459C4.69814 20.9459 0 16.2478 0 10.473ZM11.7145 7.02658C14.8955 5.83431 16.242 4.02438 16.4029 3.7952C14.203 1.84339 11.2135 1.10593 8.37671 1.78976C8.62396 2.12084 10.2487 4.33334 11.7145 7.02658ZM6.66979 2.39099C6.90564 2.71443 8.50417 4.92967 9.98639 7.56451C5.80197 8.6757 2.11645 8.6597 1.71637 8.65442C2.29644 5.87853 4.16713 3.57144 6.66979 2.39099ZM17.3974 4.82959C18.6433 6.3518 19.3978 8.29061 19.4174 10.402C19.1225 10.3396 16.165 9.73977 13.1885 10.1141C12.9456 9.52114 12.7163 8.99952 12.4023 8.35674C15.7098 7.00636 17.2088 5.0847 17.3974 4.82959ZM1.53203 10.2132C1.52928 10.3041 1.52747 10.3951 1.52747 10.4866C1.52747 12.7842 2.39841 14.882 3.82717 16.4678C5.27721 13.9856 8.21619 11.3694 11.4509 10.4583C11.2264 9.95011 10.9818 9.44137 10.7257 8.94019C6.25838 10.2771 1.92341 10.2213 1.53203 10.2132ZM13.7333 11.5241C14.9034 14.7393 15.3795 17.358 15.4712 17.9022C17.478 16.5452 18.9067 14.3956 19.3054 11.9065C18.9994 11.8099 16.5365 11.0754 13.7333 11.5241ZM4.98212 17.5438C5.91653 15.6336 8.45247 13.1678 12.0589 11.9375C13.3148 15.2011 13.8342 17.9364 13.9673 18.7212C11.0909 19.9464 7.63216 19.6103 4.98212 17.5438Z" id="path_1" />
    <clipPath id="mask_1">
      <use xlink:href="#path_1" />
    </clipPath>
  </defs>
  <g id="Icons/Brands/dribbble">
    <path d="M0 10.473C0 4.69814 4.69814 0 10.473 0C16.2478 0 20.9459 4.69814 20.9459 10.473C20.9459 16.2478 16.2478 20.9459 10.473 20.9459C4.69814 20.9459 0 16.2478 0 10.473ZM11.7145 7.02658C14.8955 5.83431 16.242 4.02438 16.4029 3.7952C14.203 1.84339 11.2135 1.10593 8.37671 1.78976C8.62396 2.12084 10.2487 4.33334 11.7145 7.02658ZM6.66979 2.39099C6.90564 2.71443 8.50417 4.92967 9.98639 7.56451C5.80197 8.6757 2.11645 8.6597 1.71637 8.65442C2.29644 5.87853 4.16713 3.57144 6.66979 2.39099ZM17.3974 4.82959C18.6433 6.3518 19.3978 8.29061 19.4174 10.402C19.1225 10.3396 16.165 9.73977 13.1885 10.1141C12.9456 9.52114 12.7163 8.99952 12.4023 8.35674C15.7098 7.00636 17.2088 5.0847 17.3974 4.82959ZM1.53203 10.2132C1.52928 10.3041 1.52747 10.3951 1.52747 10.4866C1.52747 12.7842 2.39841 14.882 3.82717 16.4678C5.27721 13.9856 8.21619 11.3694 11.4509 10.4583C11.2264 9.95011 10.9818 9.44137 10.7257 8.94019C6.25838 10.2771 1.92341 10.2213 1.53203 10.2132ZM13.7333 11.5241C14.9034 14.7393 15.3795 17.358 15.4712 17.9022C17.478 16.5452 18.9067 14.3956 19.3054 11.9065C18.9994 11.8099 16.5365 11.0754 13.7333 11.5241ZM4.98212 17.5438C5.91653 15.6336 8.45247 13.1678 12.0589 11.9375C13.3148 15.2011 13.8342 17.9364 13.9673 18.7212C11.0909 19.9464 7.63216 19.6103 4.98212 17.5438Z" id="dribbble" fill="#FFFFFF" fill-rule="evenodd" stroke="none" />
  </g>
</svg>