<?xml version="1.0" encoding="utf-8"?>
<svg width="14px" height="25px" viewBox="0 0 14 25" version="1.1" xmlns:xlink="http://www.w3.org/1999/xlink" xmlns="http://www.w3.org/2000/svg">
  <desc>Created with Lunacy</desc>
  <defs>
    <path d="M4.06742 25L4.06742 13.8184L0 13.8184L0 9.375L4.06742 9.375L4.06742 5.87402C4.06742 2.07031 6.59167 0 10.2773 0C12.0432 0 13.5598 0.12207 14 0.175781L14 4.15039L11.4439 4.15039C9.43939 4.15039 9.05227 5.0293 9.05227 6.31348L9.05227 9.375L13.5758 9.375L12.9553 13.8184L9.05227 13.8184L9.05227 25" id="path_1" />
    <clipPath id="mask_1">
      <use xlink:href="#path_1" />
    </clipPath>
  </defs>
  <g id="facebook">
    <path d="M4.06742 25L4.06742 13.8184L0 13.8184L0 9.375L4.06742 9.375L4.06742 5.87402C4.06742 2.07031 6.59167 0 10.2773 0C12.0432 0 13.5598 0.12207 14 0.175781L14 4.15039L11.4439 4.15039C9.43939 4.15039 9.05227 5.0293 9.05227 6.31348L9.05227 9.375L13.5758 9.375L12.9553 13.8184L9.05227 13.8184L9.05227 25" id="facebook-f" fill="#181818" stroke="none" />
  </g>
</svg>