<?xml version="1.0" encoding="utf-8"?>
<svg width="25px" height="28px" viewBox="0 0 25 28" version="1.1" xmlns:xlink="http://www.w3.org/1999/xlink" xmlns="http://www.w3.org/2000/svg">
  <desc>Created with Lunacy</desc>
  <defs>
    <path d="M25 14C25 21.7339 19.4052 28 12.5 28C11.2097 28 9.96976 27.7798 8.8004 27.3734C9.30948 26.4419 10.0706 24.9177 10.3528 23.704C10.504 23.0492 11.129 20.3734 11.129 20.3734C11.5373 21.2427 12.7268 21.9823 13.9919 21.9823C17.7621 21.9823 20.4788 18.0984 20.4788 13.2718C20.4788 8.64839 17.1069 5.1879 12.7722 5.1879C7.37903 5.1879 4.51109 9.24113 4.51109 13.6613C4.51109 15.7161 5.48891 18.2734 7.04637 19.0863C7.28327 19.2105 7.40927 19.154 7.46472 18.9C7.50504 18.7081 7.71673 17.754 7.8125 17.3137C7.84274 17.1726 7.82762 17.0484 7.72681 16.9129C7.21774 16.2073 6.80444 14.9202 6.80444 13.7177C6.80444 10.6298 8.89113 7.64355 12.4496 7.64355C15.5192 7.64355 17.6714 9.98629 17.6714 13.3395C17.6714 17.1274 15.9627 19.7524 13.7399 19.7524C12.5151 19.7524 11.5927 18.6177 11.8901 17.2234C12.2429 15.5581 12.9234 13.7629 12.9234 12.5605C12.9234 11.4879 12.4093 10.5903 11.3407 10.5903C10.0857 10.5903 9.07762 12.0411 9.07762 13.9887C9.07762 15.2306 9.4506 16.0661 9.4506 16.0661C9.4506 16.0661 8.21573 21.9258 7.98891 23.021C7.7369 24.229 7.8377 25.9339 7.94355 27.0403C3.29637 25.0024 0 19.9331 0 14C0 6.26613 5.59476 -5.43626e-14 12.5 -5.43626e-14C19.4052 -5.43626e-14 25 6.26613 25 14Z" id="path_1" />
    <clipPath id="mask_1">
      <use xlink:href="#path_1" />
    </clipPath>
  </defs>
  <g id="pinterest">
    <path d="M25 14C25 21.7339 19.4052 28 12.5 28C11.2097 28 9.96976 27.7798 8.8004 27.3734C9.30948 26.4419 10.0706 24.9177 10.3528 23.704C10.504 23.0492 11.129 20.3734 11.129 20.3734C11.5373 21.2427 12.7268 21.9823 13.9919 21.9823C17.7621 21.9823 20.4788 18.0984 20.4788 13.2718C20.4788 8.64839 17.1069 5.1879 12.7722 5.1879C7.37903 5.1879 4.51109 9.24113 4.51109 13.6613C4.51109 15.7161 5.48891 18.2734 7.04637 19.0863C7.28327 19.2105 7.40927 19.154 7.46472 18.9C7.50504 18.7081 7.71673 17.754 7.8125 17.3137C7.84274 17.1726 7.82762 17.0484 7.72681 16.9129C7.21774 16.2073 6.80444 14.9202 6.80444 13.7177C6.80444 10.6298 8.89113 7.64355 12.4496 7.64355C15.5192 7.64355 17.6714 9.98629 17.6714 13.3395C17.6714 17.1274 15.9627 19.7524 13.7399 19.7524C12.5151 19.7524 11.5927 18.6177 11.8901 17.2234C12.2429 15.5581 12.9234 13.7629 12.9234 12.5605C12.9234 11.4879 12.4093 10.5903 11.3407 10.5903C10.0857 10.5903 9.07762 12.0411 9.07762 13.9887C9.07762 15.2306 9.4506 16.0661 9.4506 16.0661C9.4506 16.0661 8.21573 21.9258 7.98891 23.021C7.7369 24.229 7.8377 25.9339 7.94355 27.0403C3.29637 25.0024 0 19.9331 0 14C0 6.26613 5.59476 -5.43626e-14 12.5 -5.43626e-14C19.4052 -5.43626e-14 25 6.26613 25 14Z" id="pinterest" fill="#181818" stroke="none" />
  </g>
</svg>