<?xml version="1.0" encoding="utf-8"?>
<svg width="25px" height="22px" viewBox="0 0 25 22" version="1.1" xmlns:xlink="http://www.w3.org/1999/xlink" xmlns="http://www.w3.org/2000/svg">
  <desc>Created with Lunacy</desc>
  <defs>
    <path d="M22.4303 5.48279C22.4461 5.72341 22.4461 5.96407 22.4461 6.20469C22.4461 13.5437 17.2907 22 7.86805 22C4.96511 22 2.26842 21.089 0 19.5078C0.412453 19.5594 0.808988 19.5766 1.23731 19.5766C3.63258 19.5766 5.83757 18.7 7.59837 17.2047C5.34582 17.1531 3.45812 15.5547 2.80773 13.3547C3.12501 13.4062 3.44225 13.4406 3.77541 13.4406C4.23542 13.4406 4.69548 13.3718 5.12375 13.2516C2.77604 12.7359 1.01519 10.5016 1.01519 7.80312L1.01519 7.73439C1.69727 8.14689 2.49049 8.4047 3.33117 8.43904C1.95108 7.44214 1.04693 5.7406 1.04693 3.81559C1.04693 2.78436 1.30069 1.83904 1.74488 1.01404C4.26711 4.38278 8.05838 6.58275 12.3096 6.82341C12.2303 6.41091 12.1827 5.98127 12.1827 5.55157C12.1827 2.49216 14.467 5.66302e-14 17.3065 5.66302e-14C18.7817 5.66302e-14 20.1142 0.670311 21.0501 1.75312C22.2081 1.51251 23.3185 1.04843 24.302 0.412503C23.9213 1.70159 23.1123 2.78441 22.0495 3.47186C23.0806 3.35161 24.08 3.04216 25 2.61252C24.3021 3.71247 23.4296 4.69212 22.4303 5.48279Z" id="path_1" />
    <clipPath id="mask_1">
      <use xlink:href="#path_1" />
    </clipPath>
  </defs>
  <g id="twitter">
    <path d="M22.4303 5.48279C22.4461 5.72341 22.4461 5.96407 22.4461 6.20469C22.4461 13.5437 17.2907 22 7.86805 22C4.96511 22 2.26842 21.089 0 19.5078C0.412453 19.5594 0.808988 19.5766 1.23731 19.5766C3.63258 19.5766 5.83757 18.7 7.59837 17.2047C5.34582 17.1531 3.45812 15.5547 2.80773 13.3547C3.12501 13.4062 3.44225 13.4406 3.77541 13.4406C4.23542 13.4406 4.69548 13.3718 5.12375 13.2516C2.77604 12.7359 1.01519 10.5016 1.01519 7.80312L1.01519 7.73439C1.69727 8.14689 2.49049 8.4047 3.33117 8.43904C1.95108 7.44214 1.04693 5.7406 1.04693 3.81559C1.04693 2.78436 1.30069 1.83904 1.74488 1.01404C4.26711 4.38278 8.05838 6.58275 12.3096 6.82341C12.2303 6.41091 12.1827 5.98127 12.1827 5.55157C12.1827 2.49216 14.467 5.66302e-14 17.3065 5.66302e-14C18.7817 5.66302e-14 20.1142 0.670311 21.0501 1.75312C22.2081 1.51251 23.3185 1.04843 24.302 0.412503C23.9213 1.70159 23.1123 2.78441 22.0495 3.47186C23.0806 3.35161 24.08 3.04216 25 2.61252C24.3021 3.71247 23.4296 4.69212 22.4303 5.48279Z" id="twitter" fill="#000000" stroke="none" />
  </g>
</svg>