<?xml version="1.0" encoding="utf-8"?>
<svg width="27px" height="22px" viewBox="0 0 27 22" version="1.1" xmlns:xlink="http://www.w3.org/1999/xlink" xmlns="http://www.w3.org/2000/svg">
  <desc>Created with Lunacy</desc>
  <path d="M27 2.60825C25.9875 3.06186 24.975 3.40206 23.85 3.51546C24.975 2.83505 25.875 1.70103 26.325 0.453608C25.2 1.13402 24.075 1.58763 22.8375 1.81443C21.825 0.680412 20.3625 0 18.7875 0C15.75 0 13.275 2.49485 13.275 5.5567C13.275 6.01031 13.275 6.46392 13.3875 6.80412C8.6625 6.57732 4.6125 4.30928 1.9125 0.907216C1.35 1.81443 1.125 2.72165 1.125 3.74227C1.125 5.6701 2.1375 7.37113 3.6 8.39175C2.7 8.39175 1.8 8.16495 1.125 7.71134C1.125 7.71134 1.125 7.71134 1.125 7.82474C1.125 10.5464 3.0375 12.8144 5.5125 13.268C5.0625 13.3814 4.6125 13.4948 4.05 13.4948C3.7125 13.4948 3.375 13.4948 3.0375 13.3814C3.7125 15.6495 5.7375 17.2371 8.2125 17.2371C6.3 18.7113 3.9375 19.6186 1.35 19.6186C0.9 19.6186 0.45 19.6186 0 19.5052C2.475 21.0928 5.4 22 8.4375 22C18.675 22 24.1875 13.4948 24.1875 6.12371C24.1875 5.89691 24.1875 5.6701 24.1875 5.4433C25.3125 4.64948 26.2125 3.62887 27 2.60825Z" id="Path" fill="#1E1E1E" stroke="none" />
</svg>