<?xml version="1.0" encoding="utf-8"?>
<svg width="21px" height="15px" viewBox="0 0 21 15" version="1.1" xmlns:xlink="http://www.w3.org/1999/xlink" xmlns="http://www.w3.org/2000/svg">
  <desc>Created with Lunacy</desc>
  <defs>
    <path d="M18.2597 0.436546C19.1417 0.676786 19.8364 1.3847 20.0721 2.28356C20.5005 3.9128 20.5005 7.31204 20.5005 7.31204C20.5005 7.31204 20.5005 10.7113 20.0721 12.3405C19.8364 13.2394 19.1417 13.9178 18.2597 14.158C16.6609 14.5946 10.2503 14.5946 10.2503 14.5946C10.2503 14.5946 3.8396 14.5946 2.24084 14.158C1.35882 13.9178 0.664152 13.2394 0.428378 12.3405C0 10.7113 0 7.31204 0 7.31204C0 7.31204 0 3.9128 0.428378 2.28356C0.664152 1.3847 1.35882 0.676824 2.24084 0.436546C3.8396 0 10.2503 0 10.2503 0C10.2503 0 16.661 0 18.2597 0.436546ZM8.15363 4.22583L8.15363 10.3984L13.5117 7.31217L8.15363 4.22583Z" id="path_1" />
    <clipPath id="mask_1">
      <use xlink:href="#path_1" />
    </clipPath>
  </defs>
  <g id="Icons/Brands/youtube">
    <path d="M18.2597 0.436546C19.1417 0.676786 19.8364 1.3847 20.0721 2.28356C20.5005 3.9128 20.5005 7.31204 20.5005 7.31204C20.5005 7.31204 20.5005 10.7113 20.0721 12.3405C19.8364 13.2394 19.1417 13.9178 18.2597 14.158C16.6609 14.5946 10.2503 14.5946 10.2503 14.5946C10.2503 14.5946 3.8396 14.5946 2.24084 14.158C1.35882 13.9178 0.664152 13.2394 0.428378 12.3405C0 10.7113 0 7.31204 0 7.31204C0 7.31204 0 3.9128 0.428378 2.28356C0.664152 1.3847 1.35882 0.676824 2.24084 0.436546C3.8396 0 10.2503 0 10.2503 0C10.2503 0 16.661 0 18.2597 0.436546ZM8.15363 4.22583L8.15363 10.3984L13.5117 7.31217L8.15363 4.22583Z" id="youtube" fill="#FFFFFF" fill-rule="evenodd" stroke="none" />
  </g>
</svg>